<svg width="12" height="12" viewBox="0 0 12 12" fill="none" xmlns="http://www.w3.org/2000/svg">
<path d="M8.2002 12C7.8677 12 7.6002 11.7325 7.6002 11.4V10.4H3.6002V11.4C3.6002 11.7325 3.3327 12 3.0002 12C2.6677 12 2.4002 11.7325 2.4002 11.4V10.4H1.60019C0.717695 10.4 0.000195503 9.6825 0.000195503 8.8V1.6C0.000195503 0.7175 0.717695 0 1.60019 0H9.6002C10.4827 0 11.2002 0.7175 11.2002 1.6V8.8C11.2002 9.6825 10.4827 10.4 9.6002 10.4H8.8002V11.4C8.8002 11.7325 8.5327 12 8.2002 12ZM8.2002 9.2H9.6002C9.8202 9.2 10.0002 9.02 10.0002 8.8V7.6H1.2002V8.8C1.2002 9.02 1.3802 9.2 1.60019 9.2H8.2002ZM10.0002 6.4V1.6C10.0002 1.38 9.8202 1.2 9.6002 1.2H1.60019C1.3802 1.2 1.2002 1.38 1.2002 1.6V6.4H10.0002Z" fill="#878B93"/>
</svg>
