<svg width="16" height="16" viewBox="0 0 16 16" fill="none" xmlns="http://www.w3.org/2000/svg">
<path d="M5.3999 1.6001C5.7324 1.6001 5.9999 1.8676 5.9999 2.2001V3.2001H9.9999V2.2001C9.9999 1.8676 10.2674 1.6001 10.5999 1.6001C10.9324 1.6001 11.1999 1.8676 11.1999 2.2001V3.2001H11.9999C12.8824 3.2001 13.5999 3.9176 13.5999 4.8001V12.0001C13.5999 12.8826 12.8824 13.6001 11.9999 13.6001H3.9999C3.1174 13.6001 2.3999 12.8826 2.3999 12.0001V4.8001C2.3999 3.9176 3.1174 3.2001 3.9999 3.2001H4.7999V2.2001C4.7999 1.8676 5.0674 1.6001 5.3999 1.6001ZM5.3999 4.4001H3.9999C3.7799 4.4001 3.5999 4.5801 3.5999 4.8001V6.0001H12.3999V4.8001C12.3999 4.5801 12.2199 4.4001 11.9999 4.4001H5.3999ZM3.5999 7.2001V12.0001C3.5999 12.2201 3.7799 12.4001 3.9999 12.4001H11.9999C12.2199 12.4001 12.3999 12.2201 12.3999 12.0001V7.2001H3.5999Z" fill="#878B93"/>
</svg>
