<svg width="13" height="13" viewBox="0 0 13 13" fill="none" xmlns="http://www.w3.org/2000/svg">
<path d="M11.6 6.4C11.6 9.2725 9.2725 11.6 6.4 11.6C3.5275 11.6 1.2 9.2725 1.2 6.4C1.2 3.5275 3.5275 1.2 6.4 1.2C9.2725 1.2 11.6 3.5275 11.6 6.4ZM0 6.4C0 9.935 2.865 12.8 6.4 12.8C9.935 12.8 12.8 9.935 12.8 6.4C12.8 2.865 9.935 0 6.4 0C2.865 0 0 2.865 0 6.4ZM5.8 3V6.4C5.8 6.6 5.9 6.7875 6.0675 6.9L8.4675 8.5C8.7425 8.685 9.115 8.61 9.3 8.3325C9.485 8.055 9.41 7.685 9.1325 7.5L7 6.08V3C7 2.6675 6.7325 2.4 6.4 2.4C6.0675 2.4 5.8 2.6675 5.8 3Z" fill="#878B93"/>
</svg>
