<svg width="16" height="16" viewBox="0 0 16 16" fill="none" xmlns="http://www.w3.org/2000/svg">
<path d="M13.2001 8.0001C13.2001 10.8726 10.8726 13.2001 8.0001 13.2001C5.1276 13.2001 2.8001 10.8726 2.8001 8.0001C2.8001 5.1276 5.1276 2.8001 8.0001 2.8001C10.8726 2.8001 13.2001 5.1276 13.2001 8.0001ZM1.6001 8.0001C1.6001 11.5351 4.4651 14.4001 8.0001 14.4001C11.5351 14.4001 14.4001 11.5351 14.4001 8.0001C14.4001 4.4651 11.5351 1.6001 8.0001 1.6001C4.4651 1.6001 1.6001 4.4651 1.6001 8.0001ZM7.4001 4.6001V8.0001C7.4001 8.2001 7.5001 8.3876 7.6676 8.5001L10.0676 10.1001C10.3426 10.2851 10.7151 10.2101 10.9001 9.9326C11.0851 9.6551 11.0101 9.2851 10.7326 9.1001L8.6001 7.6801V4.6001C8.6001 4.2676 8.3326 4.0001 8.0001 4.0001C7.6676 4.0001 7.4001 4.2676 7.4001 4.6001Z" fill="#878B93"/>
</svg>
