<svg width="40" height="40" viewBox="0 0 40 40" fill="none" xmlns="http://www.w3.org/2000/svg">
<path d="M0 12C0 5.37258 5.37258 0 12 0H28C34.6274 0 40 5.37258 40 12V28C40 34.6274 34.6274 40 28 40H12C5.37258 40 0 34.6274 0 28V12Z" fill="white"/>
<g clip-path="url(#clip0_152_384)">
<path d="M28.1668 18.3333C28.5474 20.2011 28.2761 22.1428 27.3983 23.8348C26.5205 25.5268 25.0892 26.8667 23.3431 27.6311C21.5969 28.3955 19.6415 28.5381 17.8029 28.0353C15.9643 27.5325 14.3537 26.4145 13.2396 24.8678C12.1255 23.3212 11.5753 21.4394 11.6807 19.5362C11.7862 17.6329 12.5409 15.8234 13.8191 14.4093C15.0972 12.9952 16.8215 12.062 18.7044 11.7654C20.5873 11.4687 22.515 11.8265 24.166 12.7792" stroke="#128280" stroke-width="1.66667" stroke-linecap="round" stroke-linejoin="round"/>
<path d="M17.5 19.1666L20 21.6666L28.3333 13.3333" stroke="#128280" stroke-width="1.66667" stroke-linecap="round" stroke-linejoin="round"/>
</g>
<defs>
<clipPath id="clip0_152_384">
<rect width="20" height="20" fill="white" transform="translate(10 10)"/>
</clipPath>
</defs>
</svg>
