<svg width="120" height="120" viewBox="0 0 120 120" fill="none" xmlns="http://www.w3.org/2000/svg">
<path d="M34.5759 66.1125C40.5759 58.9125 50.1759 55.3125 60.9759 55.3125C71.7759 55.3125 81.3759 58.9125 87.3759 66.1125C93.3759 73.3125 95.7759 81.7125 93.3759 90.1125C92.1759 94.9125 89.7759 98.5125 86.1759 102.113C85.8837 102.405 85.5956 102.679 85.3065 102.939C80.6281 107.141 72.5579 107.956 68.5323 103.125C64.93 98.8023 59.9075 99.7247 55.9474 103.722C55.7672 103.904 55.5928 104.078 55.426 104.243C54.3787 105.275 53.208 106.23 51.8267 106.734C50.6736 107.155 49.2059 107.521 47.808 107.677C45.3525 107.953 42.9238 107.061 40.7447 105.896C38.873 104.896 37.3284 103.665 35.7759 102.113C32.1759 98.5125 29.7759 94.9125 28.5759 90.1125C26.1759 81.7125 28.5759 73.3125 34.5759 66.1125Z" stroke="white" stroke-width="3" stroke-linecap="round" stroke-linejoin="round"/>
<path d="M23.5852 63.0129C28.8805 61.3483 31.194 53.703 28.7526 45.9366C26.3113 38.1702 20.0395 33.2237 14.7442 34.8882C9.44892 36.5528 7.13537 44.1981 9.57674 51.9645C12.0181 59.7309 18.2899 64.6775 23.5852 63.0129Z" stroke="white" stroke-width="3.35017"/>
<path d="M46.1516 48.8725C53.2433 48.3624 58.3561 39.1042 57.5712 28.1939C56.7864 17.2835 50.4012 8.85245 43.3095 9.36258C36.2177 9.87271 31.105 19.1309 31.8898 30.0412C32.6746 40.9516 39.0598 49.3826 46.1516 48.8725Z" stroke="white" stroke-width="3.34687"/>
<path d="M74.6923 48.7871C81.7813 49.3345 88.2107 40.9371 89.0528 30.031C89.895 19.1249 84.8309 9.84004 77.7419 9.29265C70.653 8.74526 64.2236 17.1426 63.3814 28.0487C62.5393 38.9548 67.6033 48.2397 74.6923 48.7871Z" stroke="white" stroke-width="3.34687"/>
<path d="M97.2164 60.2067C102.496 61.9197 108.813 57.0309 111.326 49.2871C113.838 41.5434 111.595 33.8772 106.315 32.1642C101.035 30.4512 94.7181 35.34 92.2057 43.0837C89.6933 50.8274 91.9366 58.4936 97.2164 60.2067Z" stroke="white" stroke-width="3.35017"/>
</svg>
