<svg width="96" height="96" viewBox="0 0 96 96" fill="none" xmlns="http://www.w3.org/2000/svg">
<path d="M48.0001 69.5996C60.3713 69.5996 70.4001 60.6453 70.4001 49.5996C70.4001 38.5539 60.3713 29.5996 48.0001 29.5996C35.6289 29.5996 25.6001 38.5539 25.6001 49.5996C25.6001 60.6453 35.6289 69.5996 48.0001 69.5996Z" stroke="white" stroke-width="2"/>
<path d="M32 40C24 40 20 44 20 52C20 57.3333 21.8667 60 25.6 60C27.2 57.3333 28.8 53.3333 30.4 48" stroke="white" stroke-width="2" stroke-linecap="round"/>
<path d="M64 40C72 40 76 44 76 52C76 57.3333 74.1333 60 70.4 60C68.8 57.3333 67.2 53.3333 65.6 48" stroke="white" stroke-width="2" stroke-linecap="round"/>
<path d="M40.0002 49.1996C41.5466 49.1996 42.8002 47.946 42.8002 46.3996C42.8002 44.8532 41.5466 43.5996 40.0002 43.5996C38.4538 43.5996 37.2002 44.8532 37.2002 46.3996C37.2002 47.946 38.4538 49.1996 40.0002 49.1996Z" fill="white"/>
<path d="M56.0002 49.1996C57.5466 49.1996 58.8002 47.946 58.8002 46.3996C58.8002 44.8532 57.5466 43.5996 56.0002 43.5996C54.4538 43.5996 53.2002 44.8532 53.2002 46.3996C53.2002 47.946 54.4538 49.1996 56.0002 49.1996Z" fill="white"/>
<path d="M47.9999 65.5996C53.3018 65.5996 57.5999 62.0179 57.5999 57.5996C57.5999 53.1813 53.3018 49.5996 47.9999 49.5996C42.698 49.5996 38.3999 53.1813 38.3999 57.5996C38.3999 62.0179 42.698 65.5996 47.9999 65.5996Z" stroke="white" stroke-width="2"/>
<path d="M48 57.6002C50.2091 57.6002 52 56.1675 52 54.4002C52 52.6329 50.2091 51.2002 48 51.2002C45.7909 51.2002 44 52.6329 44 54.4002C44 56.1675 45.7909 57.6002 48 57.6002Z" fill="white"/>
<path d="M48 57.5996V62.3996" stroke="white" stroke-width="1.6" stroke-linecap="round"/>
<path d="M47.9999 62.4004C43.7332 64.5337 40.5332 65.0671 38.3999 64.0004" stroke="white" stroke-width="1.6" stroke-linecap="round"/>
<path d="M48 62.4004C52.2667 64.5337 55.4667 65.0671 57.6 64.0004" stroke="white" stroke-width="1.6" stroke-linecap="round"/>
</svg>
