<svg width="48" height="48" viewBox="0 0 48 48" fill="none" xmlns="http://www.w3.org/2000/svg">
<path d="M13.8304 26.445C16.2304 23.565 20.0704 22.125 24.3904 22.125C28.7104 22.125 32.5504 23.565 34.9504 26.445C37.3504 29.325 38.3104 32.685 37.3504 36.045C36.8704 37.965 35.9104 39.405 34.4704 40.845C34.3535 40.9619 34.2382 41.0717 34.1226 41.1755C32.2513 42.8562 29.0232 43.1823 27.4129 41.25C25.972 39.5209 23.963 39.8899 22.379 41.4889C22.3069 41.5616 22.2371 41.6313 22.1704 41.6971C21.7515 42.11 21.2832 42.492 20.7307 42.6938C20.2694 42.8622 19.6823 43.0083 19.1232 43.0709C18.141 43.181 17.1695 42.8244 16.2979 42.3585C15.5492 41.9583 14.9314 41.466 14.3104 40.845C12.8704 39.405 11.9104 37.965 11.4304 36.045C10.4704 32.685 11.4304 29.325 13.8304 26.445Z" stroke="#128280" stroke-width="1.2" stroke-linecap="round" stroke-linejoin="round"/>
<path d="M9.43407 25.2054C11.5522 24.5396 12.4776 21.4814 11.5011 18.3749C10.5245 15.2683 8.01579 13.2897 5.89768 13.9555C3.77957 14.6214 2.85415 17.6795 3.8307 20.7861C4.80725 23.8926 7.31596 25.8712 9.43407 25.2054Z" stroke="#128280" stroke-width="1.34007"/>
<path d="M18.4606 19.5485C21.2973 19.3445 23.3424 15.6412 23.0285 11.2771C22.7146 6.91291 20.1605 3.54049 17.3238 3.74454C14.4871 3.9486 12.442 7.65185 12.7559 12.016C13.0698 16.3801 15.6239 19.7526 18.4606 19.5485Z" stroke="#128280" stroke-width="1.33875"/>
<path d="M29.8768 19.515C32.7124 19.734 35.2842 16.375 35.621 12.0126C35.9579 7.65016 33.9323 3.93621 31.0967 3.71725C28.2611 3.4983 25.6893 6.85725 25.3525 11.2197C25.0156 15.5821 27.0412 19.2961 29.8768 19.515Z" stroke="#128280" stroke-width="1.33875"/>
<path d="M38.8863 24.0827C40.9982 24.7679 43.5249 22.8123 44.5299 19.7149C45.5349 16.6174 44.6375 13.5509 42.5256 12.8657C40.4137 12.1805 37.887 14.136 36.882 17.2335C35.877 20.331 36.7744 23.3974 38.8863 24.0827Z" stroke="#128280" stroke-width="1.34007"/>
</svg>
