<svg width="22" height="22" viewBox="0 0 22 22" fill="none" xmlns="http://www.w3.org/2000/svg">
<path d="M20.0489 5.68738C20.5776 5.1588 20.8747 4.44185 20.8748 3.69423C20.8749 2.94662 20.578 2.22959 20.0494 1.70088C19.5209 1.17217 18.8039 0.875094 18.0563 0.875C17.3087 0.874906 16.5916 1.1718 16.0629 1.70038L2.71693 15.0494C2.48475 15.2809 2.31305 15.5659 2.21693 15.8794L0.895934 20.2314C0.87009 20.3179 0.868138 20.4097 0.890286 20.4972C0.912433 20.5847 0.957855 20.6646 1.02173 20.7284C1.08561 20.7922 1.16555 20.8374 1.25309 20.8595C1.34063 20.8815 1.43249 20.8794 1.51893 20.8534L5.87193 19.5334C6.1851 19.4381 6.47011 19.2675 6.70193 19.0364L20.0489 5.68738Z" stroke="#128280" stroke-width="1.75" stroke-linecap="round" stroke-linejoin="round"/>
</svg>
