<svg version="1.2" xmlns="http://www.w3.org/2000/svg" viewBox="0 0 16 16" width="16" height="16">
	<defs>
		<clipPath clipPathUnits="userSpaceOnUse" id="cp1">
			<path d="m0 0h16v16h-16z"/>
		</clipPath>
	</defs>
	<style>
		.s0 { fill: #878b93 } 
	</style>
	<g id="Clip-Path" clip-path="url(#cp1)">
		<g>
			<path class="s0" d="m1.83 0.98c-0.24-0.24-0.62-0.24-0.85 0-0.23 0.23-0.24 0.61 0 0.85l13.2 13.2c0.23 0.23 0.61 0.23 0.84 0 0.24-0.24 0.24-0.62 0-0.85l-2.41-2.41q0.1-0.09 0.2-0.18c1.17-1.09 1.96-2.38 2.33-3.28q0.12-0.31 0-0.61c-0.37-0.9-1.16-2.2-2.33-3.28-1.17-1.09-2.79-2.02-4.81-2.02-1.42 0-2.64 0.46-3.65 1.11zm3.4 3.4c0.8-0.47 1.73-0.78 2.77-0.78 1.63 0 2.97 0.74 4 1.69 0.96 0.9 1.63 1.96 1.97 2.71-0.34 0.75-1.01 1.81-1.97 2.71q-0.12 0.1-0.23 0.21l-1.12-1.12c0.35-0.51 0.55-1.13 0.55-1.8 0-1.77-1.43-3.2-3.2-3.2-0.66 0-1.28 0.21-1.8 0.56zm-1.83 1.55l-0.85-0.85c-0.82 0.92-1.38 1.9-1.68 2.61q-0.12 0.31 0 0.62c0.38 0.89 1.16 2.19 2.33 3.27 1.18 1.1 2.79 2.02 4.81 2.02 0.94 0 1.78-0.2 2.54-0.52l-0.93-0.93q-0.75 0.24-1.61 0.25c-1.63 0-2.97-0.74-4-1.69-0.96-0.9-1.62-1.96-1.96-2.71 0.26-0.58 0.71-1.34 1.35-2.07zm6.39 3l-2.7-2.7q0.42-0.23 0.92-0.23c1.11 0 2 0.89 2 2q0 0.51-0.22 0.93z"/>
		</g>
	</g>
</svg>