<svg width="27" height="26" viewBox="0 0 27 26" fill="none" xmlns="http://www.w3.org/2000/svg">
<path d="M12.412 1.89829C12.7193 1.2757 12.873 0.964407 13.0816 0.864949C13.2631 0.778415 13.4739 0.778415 13.6554 0.864949C13.864 0.964407 14.0177 1.2757 14.325 1.89829L17.2406 7.80491C17.3313 7.98871 17.3767 8.08061 17.443 8.15196C17.5017 8.21514 17.572 8.26633 17.6502 8.30269C17.7386 8.34376 17.84 8.35858 18.0428 8.38823L24.5645 9.34147C25.2512 9.44185 25.5946 9.49204 25.7535 9.65978C25.8918 9.80572 25.9568 10.0063 25.9305 10.2056C25.9002 10.4346 25.6517 10.6768 25.1545 11.161L20.4371 15.7558C20.29 15.899 20.2165 15.9706 20.1691 16.0558C20.1271 16.1313 20.1001 16.2141 20.0897 16.2999C20.078 16.3967 20.0953 16.4979 20.13 16.7002L21.2431 23.19C21.3605 23.8745 21.4192 24.2168 21.3089 24.4199C21.2129 24.5966 21.0423 24.7205 20.8446 24.7572C20.6173 24.7993 20.31 24.6377 19.6953 24.3144L13.865 21.2483C13.6833 21.1528 13.5925 21.105 13.4968 21.0862C13.4121 21.0696 13.3249 21.0696 13.2402 21.0862C13.1445 21.105 13.0537 21.1528 12.872 21.2483L7.04172 24.3144C6.42704 24.6377 6.1197 24.7993 5.89245 24.7572C5.69473 24.7205 5.52412 24.5966 5.42814 24.4199C5.31782 24.2168 5.37652 23.8745 5.49392 23.19L6.607 16.7002C6.64171 16.4979 6.65906 16.3967 6.64732 16.2999C6.63692 16.2141 6.60997 16.1313 6.56796 16.0558C6.52052 15.9706 6.44699 15.899 6.29994 15.7558L1.58257 11.161C1.08537 10.6768 0.836776 10.4346 0.806525 10.2056C0.780204 10.0063 0.845228 9.80572 0.98349 9.65978C1.1424 9.49204 1.48578 9.44185 2.17255 9.34147L8.69424 8.38823C8.89706 8.35858 8.99846 8.34376 9.08678 8.30269C9.16497 8.26633 9.23537 8.21514 9.29407 8.15196C9.36037 8.08061 9.40573 7.98871 9.49645 7.80491L12.412 1.89829Z" stroke="#128280" stroke-width="1.6" stroke-linecap="round" stroke-linejoin="round"/>
</svg>
