<svg width="20" height="14" viewBox="0 0 20 14" fill="none" xmlns="http://www.w3.org/2000/svg">
<path d="M11.875 12C12.3582 12 12.75 12.3918 12.75 12.875C12.75 13.3582 12.3582 13.75 11.875 13.75H7.875C7.39175 13.75 7 13.3582 7 12.875C7 12.3918 7.39175 12 7.875 12H11.875Z" fill="#101828"/>
<path d="M14.875 6C15.3582 6 15.75 6.39175 15.75 6.875C15.75 7.35825 15.3582 7.75 14.875 7.75H4.875C4.39175 7.75 4 7.35825 4 6.875C4 6.39175 4.39175 6 4.875 6H14.875Z" fill="#101828"/>
<path d="M18.875 0C19.3582 0 19.75 0.391751 19.75 0.875C19.75 1.35825 19.3582 1.75 18.875 1.75H0.875C0.391751 1.75 0 1.35825 0 0.875C0 0.391751 0.391751 0 0.875 0H18.875Z" fill="#101828"/>
</svg>
