<svg width="24" height="24" viewBox="0 0 24 24" fill="none" xmlns="http://www.w3.org/2000/svg">
<path d="M18.6674 10.3334C18.6674 14.4943 14.0515 18.8276 12.5015 20.1659C12.3571 20.2745 12.1814 20.3332 12.0007 20.3332C11.82 20.3332 11.6442 20.2745 11.4998 20.1659C9.94982 18.8276 5.33398 14.4943 5.33398 10.3334C5.33398 8.5653 6.03636 6.86961 7.2866 5.61937C8.53685 4.36913 10.2325 3.66675 12.0007 3.66675C13.7688 3.66675 15.4645 4.36913 16.7147 5.61937C17.965 6.86961 18.6674 8.5653 18.6674 10.3334Z" stroke="#128280" stroke-width="1.66667" stroke-linecap="round" stroke-linejoin="round"/>
<path d="M12 12.8335C13.3807 12.8335 14.5 11.7142 14.5 10.3335C14.5 8.95279 13.3807 7.8335 12 7.8335C10.6193 7.8335 9.5 8.95279 9.5 10.3335C9.5 11.7142 10.6193 12.8335 12 12.8335Z" stroke="#128280" stroke-width="1.66667" stroke-linecap="round" stroke-linejoin="round"/>
</svg>
