<svg width="193" height="48" viewBox="0 0 193 48" fill="none" xmlns="http://www.w3.org/2000/svg">
<path d="M13.8304 26.445C16.2304 23.565 20.0704 22.125 24.3904 22.125C28.7104 22.125 32.5504 23.565 34.9504 26.445C37.3504 29.325 38.3104 32.685 37.3504 36.045C36.8704 37.965 35.9104 39.405 34.4704 40.845C34.3535 40.9619 34.2382 41.0717 34.1226 41.1755C32.2513 42.8562 29.0232 43.1823 27.4129 41.25C25.972 39.5209 23.963 39.8899 22.379 41.4889C22.3069 41.5616 22.2371 41.6313 22.1704 41.6971C21.7515 42.11 21.2832 42.492 20.7307 42.6938C20.2694 42.8622 19.6823 43.0083 19.1232 43.0709C18.141 43.181 17.1695 42.8244 16.2979 42.3585C15.5492 41.9583 14.9314 41.466 14.3104 40.845C12.8704 39.405 11.9104 37.965 11.4304 36.045C10.4704 32.685 11.4304 29.325 13.8304 26.445Z" stroke="#128280" stroke-width="1.2" stroke-linecap="round" stroke-linejoin="round"/>
<path d="M9.43407 25.2054C11.5522 24.5396 12.4776 21.4814 11.5011 18.3749C10.5245 15.2683 8.01579 13.2897 5.89768 13.9555C3.77957 14.6214 2.85415 17.6795 3.8307 20.7861C4.80725 23.8926 7.31596 25.8712 9.43407 25.2054Z" stroke="#128280" stroke-width="1.34007"/>
<path d="M18.4606 19.5485C21.2973 19.3445 23.3424 15.6412 23.0285 11.2771C22.7146 6.91291 20.1605 3.54049 17.3238 3.74454C14.4871 3.9486 12.442 7.65185 12.7559 12.016C13.0698 16.3801 15.6239 19.7526 18.4606 19.5485Z" stroke="#128280" stroke-width="1.33875"/>
<path d="M29.8763 19.515C32.7119 19.734 35.2837 16.375 35.6205 12.0126C35.9574 7.65016 33.9318 3.93621 31.0962 3.71725C28.2606 3.4983 25.6888 6.85725 25.352 11.2197C25.0151 15.5821 27.0408 19.2961 29.8763 19.515Z" stroke="#128280" stroke-width="1.33875"/>
<path d="M38.8868 24.0827C40.9987 24.7679 43.5254 22.8123 44.5304 19.7149C45.5354 16.6174 44.638 13.5509 42.5261 12.8657C40.4142 12.1805 37.8875 14.136 36.8825 17.2335C35.8775 20.331 36.7749 23.3974 38.8868 24.0827Z" stroke="#128280" stroke-width="1.34007"/>
<path d="M66.31 14.81C66.8033 14.81 67.2333 14.75 67.6 14.63C67.9667 14.5033 68.27 14.3267 68.51 14.1C68.7567 13.8667 68.94 13.5867 69.06 13.26C69.18 12.9267 69.24 12.5567 69.24 12.15C69.24 11.7633 69.18 11.4133 69.06 11.1C68.94 10.7867 68.76 10.52 68.52 10.3C68.28 10.08 67.9767 9.91333 67.61 9.8C67.2433 9.68 66.81 9.62 66.31 9.62H64.3V14.81H66.31ZM66.31 7.54C67.2767 7.54 68.1133 7.65333 68.82 7.88C69.5267 8.10667 70.11 8.42333 70.57 8.83C71.03 9.23667 71.37 9.72333 71.59 10.29C71.8167 10.8567 71.93 11.4767 71.93 12.15C71.93 12.85 71.8133 13.4933 71.58 14.08C71.3467 14.66 70.9967 15.16 70.53 15.58C70.0633 16 69.4767 16.3267 68.77 16.56C68.07 16.7933 67.25 16.91 66.31 16.91H64.3V22H61.61V7.54H66.31ZM78.7103 17.62C77.997 17.6533 77.397 17.7167 76.9103 17.81C76.4236 17.8967 76.0336 18.01 75.7403 18.15C75.447 18.29 75.237 18.4533 75.1103 18.64C74.9836 18.8267 74.9203 19.03 74.9203 19.25C74.9203 19.6833 75.047 19.9933 75.3003 20.18C75.5603 20.3667 75.897 20.46 76.3103 20.46C76.817 20.46 77.2536 20.37 77.6203 20.19C77.9936 20.0033 78.357 19.7233 78.7103 19.35V17.62ZM73.0503 13.17C74.2303 12.09 75.6503 11.55 77.3103 11.55C77.9103 11.55 78.447 11.65 78.9203 11.85C79.3936 12.0433 79.7936 12.3167 80.1203 12.67C80.447 13.0167 80.6936 13.4333 80.8603 13.92C81.0336 14.4067 81.1203 14.94 81.1203 15.52V22H80.0003C79.767 22 79.587 21.9667 79.4603 21.9C79.3336 21.8267 79.2336 21.6833 79.1603 21.47L78.9403 20.73C78.6803 20.9633 78.427 21.17 78.1803 21.35C77.9336 21.5233 77.677 21.67 77.4103 21.79C77.1436 21.91 76.857 22 76.5503 22.06C76.2503 22.1267 75.917 22.16 75.5503 22.16C75.117 22.16 74.717 22.1033 74.3503 21.99C73.9836 21.87 73.667 21.6933 73.4003 21.46C73.1336 21.2267 72.927 20.9367 72.7803 20.59C72.6336 20.2433 72.5603 19.84 72.5603 19.38C72.5603 19.12 72.6036 18.8633 72.6903 18.61C72.777 18.35 72.917 18.1033 73.1103 17.87C73.3103 17.6367 73.567 17.4167 73.8803 17.21C74.1936 17.0033 74.577 16.8233 75.0303 16.67C75.4903 16.5167 76.0236 16.3933 76.6303 16.3C77.237 16.2 77.9303 16.14 78.7103 16.12V15.52C78.7103 14.8333 78.5636 14.3267 78.2703 14C77.977 13.6667 77.5536 13.5 77.0003 13.5C76.6003 13.5 76.267 13.5467 76.0003 13.64C75.7403 13.7333 75.5103 13.84 75.3103 13.96C75.1103 14.0733 74.927 14.1767 74.7603 14.27C74.6003 14.3633 74.4203 14.41 74.2203 14.41C74.047 14.41 73.9003 14.3667 73.7803 14.28C73.6603 14.1867 73.5636 14.08 73.4903 13.96L73.0503 13.17ZM97.9989 11.74L94.7389 22H92.7589C92.5322 22 92.3756 21.8533 92.2889 21.56L90.4489 15.63C90.3889 15.43 90.3322 15.2333 90.2789 15.04C90.2322 14.84 90.1922 14.64 90.1589 14.44C90.1189 14.64 90.0722 14.8433 90.0189 15.05C89.9722 15.25 89.9189 15.45 89.8589 15.65L87.9889 21.56C87.9089 21.8533 87.7322 22 87.4589 22H85.5589L82.3089 11.74H84.2789C84.4589 11.74 84.6122 11.7833 84.7389 11.87C84.8656 11.9567 84.9489 12.0667 84.9889 12.2L86.4589 17.68C86.5322 17.98 86.5956 18.2733 86.6489 18.56C86.7089 18.8467 86.7589 19.1333 86.7989 19.42C86.8722 19.1333 86.9489 18.8467 87.0289 18.56C87.1156 18.2733 87.2056 17.98 87.2989 17.68L88.9989 12.18C89.0389 12.0467 89.1156 11.9367 89.2289 11.85C89.3489 11.7633 89.4922 11.72 89.6589 11.72H90.7489C90.9222 11.72 91.0689 11.7633 91.1889 11.85C91.3156 11.9367 91.3989 12.0467 91.4389 12.18L93.0889 17.68C93.1756 17.98 93.2556 18.2767 93.3289 18.57C93.4089 18.8567 93.4856 19.1433 93.5589 19.43C93.6456 18.8633 93.7689 18.28 93.9289 17.68L95.4389 12.2C95.4856 12.0667 95.5689 11.9567 95.6889 11.87C95.8089 11.7833 95.9522 11.74 96.1189 11.74H97.9989ZM109.724 18.59C109.87 18.59 110 18.6467 110.114 18.76L111.174 19.91C110.587 20.6367 109.864 21.1933 109.004 21.58C108.15 21.9667 107.124 22.16 105.924 22.16C104.85 22.16 103.884 21.9767 103.024 21.61C102.17 21.2433 101.44 20.7333 100.834 20.08C100.227 19.4267 99.7603 18.6467 99.4336 17.74C99.1136 16.8333 98.9536 15.8433 98.9536 14.77C98.9536 13.6833 99.1269 12.69 99.4736 11.79C99.8203 10.8833 100.307 10.1033 100.934 9.45C101.567 8.79667 102.32 8.29 103.194 7.93C104.067 7.56333 105.034 7.38 106.094 7.38C107.147 7.38 108.08 7.55333 108.894 7.9C109.714 8.24667 110.41 8.7 110.984 9.26L110.084 10.51C110.03 10.59 109.96 10.66 109.874 10.72C109.794 10.78 109.68 10.81 109.534 10.81C109.434 10.81 109.33 10.7833 109.224 10.73C109.117 10.67 109 10.6 108.874 10.52C108.747 10.4333 108.6 10.34 108.434 10.24C108.267 10.14 108.074 10.05 107.854 9.97C107.634 9.88333 107.377 9.81333 107.084 9.76C106.797 9.7 106.464 9.67 106.084 9.67C105.437 9.67 104.844 9.78667 104.304 10.02C103.77 10.2467 103.31 10.58 102.924 11.02C102.537 11.4533 102.237 11.9867 102.024 12.62C101.81 13.2467 101.704 13.9633 101.704 14.77C101.704 15.5833 101.817 16.3067 102.044 16.94C102.277 17.5733 102.59 18.1067 102.984 18.54C103.377 18.9733 103.84 19.3067 104.374 19.54C104.907 19.7667 105.48 19.88 106.094 19.88C106.46 19.88 106.79 19.86 107.084 19.82C107.384 19.78 107.657 19.7167 107.904 19.63C108.157 19.5433 108.394 19.4333 108.614 19.3C108.84 19.16 109.064 18.99 109.284 18.79C109.35 18.73 109.42 18.6833 109.494 18.65C109.567 18.61 109.644 18.59 109.724 18.59ZM118.046 17.62C117.333 17.6533 116.733 17.7167 116.246 17.81C115.76 17.8967 115.37 18.01 115.076 18.15C114.783 18.29 114.573 18.4533 114.446 18.64C114.32 18.8267 114.256 19.03 114.256 19.25C114.256 19.6833 114.383 19.9933 114.636 20.18C114.896 20.3667 115.233 20.46 115.646 20.46C116.153 20.46 116.59 20.37 116.956 20.19C117.33 20.0033 117.693 19.7233 118.046 19.35V17.62ZM112.386 13.17C113.566 12.09 114.986 11.55 116.646 11.55C117.246 11.55 117.783 11.65 118.256 11.85C118.73 12.0433 119.13 12.3167 119.456 12.67C119.783 13.0167 120.03 13.4333 120.196 13.92C120.37 14.4067 120.456 14.94 120.456 15.52V22H119.336C119.103 22 118.923 21.9667 118.796 21.9C118.67 21.8267 118.57 21.6833 118.496 21.47L118.276 20.73C118.016 20.9633 117.763 21.17 117.516 21.35C117.27 21.5233 117.013 21.67 116.746 21.79C116.48 21.91 116.193 22 115.886 22.06C115.586 22.1267 115.253 22.16 114.886 22.16C114.453 22.16 114.053 22.1033 113.686 21.99C113.32 21.87 113.003 21.6933 112.736 21.46C112.47 21.2267 112.263 20.9367 112.116 20.59C111.97 20.2433 111.896 19.84 111.896 19.38C111.896 19.12 111.94 18.8633 112.026 18.61C112.113 18.35 112.253 18.1033 112.446 17.87C112.646 17.6367 112.903 17.4167 113.216 17.21C113.53 17.0033 113.913 16.8233 114.366 16.67C114.826 16.5167 115.36 16.3933 115.966 16.3C116.573 16.2 117.266 16.14 118.046 16.12V15.52C118.046 14.8333 117.9 14.3267 117.606 14C117.313 13.6667 116.89 13.5 116.336 13.5C115.936 13.5 115.603 13.5467 115.336 13.64C115.076 13.7333 114.846 13.84 114.646 13.96C114.446 14.0733 114.263 14.1767 114.096 14.27C113.936 14.3633 113.756 14.41 113.556 14.41C113.383 14.41 113.236 14.3667 113.116 14.28C112.996 14.1867 112.9 14.08 112.826 13.96L112.386 13.17ZM125.113 13.52C125.433 12.9067 125.813 12.4267 126.253 12.08C126.693 11.7267 127.213 11.55 127.812 11.55C128.286 11.55 128.666 11.6533 128.953 11.86L128.793 13.71C128.759 13.83 128.709 13.9167 128.643 13.97C128.583 14.0167 128.499 14.04 128.393 14.04C128.293 14.04 128.143 14.0233 127.943 13.99C127.749 13.9567 127.559 13.94 127.373 13.94C127.099 13.94 126.856 13.98 126.643 14.06C126.429 14.14 126.236 14.2567 126.063 14.41C125.896 14.5567 125.746 14.7367 125.613 14.95C125.486 15.1633 125.366 15.4067 125.253 15.68V22H122.783V11.74H124.233C124.486 11.74 124.663 11.7867 124.763 11.88C124.863 11.9667 124.929 12.1267 124.963 12.36L125.113 13.52ZM136.56 15.69C136.56 15.37 136.514 15.07 136.42 14.79C136.334 14.5033 136.2 14.2533 136.02 14.04C135.84 13.8267 135.61 13.66 135.33 13.54C135.057 13.4133 134.737 13.35 134.37 13.35C133.657 13.35 133.094 13.5533 132.68 13.96C132.274 14.3667 132.014 14.9433 131.9 15.69H136.56ZM131.85 17.18C131.89 17.7067 131.984 18.1633 132.13 18.55C132.277 18.93 132.47 19.2467 132.71 19.5C132.95 19.7467 133.234 19.9333 133.56 20.06C133.894 20.18 134.26 20.24 134.66 20.24C135.06 20.24 135.404 20.1933 135.69 20.1C135.984 20.0067 136.237 19.9033 136.45 19.79C136.67 19.6767 136.86 19.5733 137.02 19.48C137.187 19.3867 137.347 19.34 137.5 19.34C137.707 19.34 137.86 19.4167 137.96 19.57L138.67 20.47C138.397 20.79 138.09 21.06 137.75 21.28C137.41 21.4933 137.054 21.6667 136.68 21.8C136.314 21.9267 135.937 22.0167 135.55 22.07C135.17 22.1233 134.8 22.15 134.44 22.15C133.727 22.15 133.064 22.0333 132.45 21.8C131.837 21.56 131.304 21.21 130.85 20.75C130.397 20.2833 130.04 19.71 129.78 19.03C129.52 18.3433 129.39 17.55 129.39 16.65C129.39 15.95 129.504 15.2933 129.73 14.68C129.957 14.06 130.28 13.5233 130.7 13.07C131.127 12.61 131.644 12.2467 132.25 11.98C132.864 11.7133 133.554 11.58 134.32 11.58C134.967 11.58 135.564 11.6833 136.11 11.89C136.657 12.0967 137.127 12.4 137.52 12.8C137.914 13.1933 138.22 13.68 138.44 14.26C138.667 14.8333 138.78 15.49 138.78 16.23C138.78 16.6033 138.74 16.8567 138.66 16.99C138.58 17.1167 138.427 17.18 138.2 17.18H131.85Z" fill="#101828"/>
<path d="M68.088 36.402L64.584 45H63.54L60.036 36.402H60.966C61.07 36.402 61.154 36.428 61.218 36.48C61.282 36.532 61.33 36.598 61.362 36.678L63.786 42.744C63.838 42.88 63.888 43.028 63.936 43.188C63.988 43.348 64.034 43.516 64.074 43.692C64.114 43.516 64.156 43.348 64.2 43.188C64.244 43.028 64.292 42.88 64.344 42.744L66.762 36.678C66.786 36.61 66.832 36.548 66.9 36.492C66.972 36.432 67.058 36.402 67.158 36.402H68.088ZM72.3828 41.298C72.3828 41.05 72.3468 40.824 72.2748 40.62C72.2068 40.412 72.1048 40.234 71.9688 40.086C71.8368 39.934 71.6748 39.818 71.4828 39.738C71.2908 39.654 71.0728 39.612 70.8288 39.612C70.3168 39.612 69.9108 39.762 69.6108 40.062C69.3148 40.358 69.1308 40.77 69.0588 41.298H72.3828ZM73.2468 44.148C73.1148 44.308 72.9568 44.448 72.7728 44.568C72.5888 44.684 72.3908 44.78 72.1788 44.856C71.9708 44.932 71.7548 44.988 71.5308 45.024C71.3068 45.064 71.0848 45.084 70.8648 45.084C70.4448 45.084 70.0568 45.014 69.7008 44.874C69.3488 44.73 69.0428 44.522 68.7828 44.25C68.5268 43.974 68.3268 43.634 68.1828 43.23C68.0388 42.826 67.9668 42.362 67.9668 41.838C67.9668 41.414 68.0308 41.018 68.1588 40.65C68.2908 40.282 68.4788 39.964 68.7228 39.696C68.9668 39.424 69.2648 39.212 69.6168 39.06C69.9688 38.904 70.3648 38.826 70.8048 38.826C71.1688 38.826 71.5048 38.888 71.8128 39.012C72.1248 39.132 72.3928 39.308 72.6168 39.54C72.8448 39.768 73.0228 40.052 73.1508 40.392C73.2788 40.728 73.3428 41.112 73.3428 41.544C73.3428 41.712 73.3248 41.824 73.2888 41.88C73.2528 41.936 73.1848 41.964 73.0848 41.964H69.0228C69.0348 42.348 69.0868 42.682 69.1788 42.966C69.2748 43.25 69.4068 43.488 69.5748 43.68C69.7428 43.868 69.9428 44.01 70.1748 44.106C70.4068 44.198 70.6668 44.244 70.9548 44.244C71.2228 44.244 71.4528 44.214 71.6448 44.154C71.8408 44.09 72.0088 44.022 72.1488 43.95C72.2888 43.878 72.4048 43.812 72.4968 43.752C72.5928 43.688 72.6748 43.656 72.7428 43.656C72.8308 43.656 72.8988 43.69 72.9468 43.758L73.2468 44.148ZM76.7237 45.096C76.2437 45.096 75.8737 44.962 75.6137 44.694C75.3577 44.426 75.2297 44.04 75.2297 43.536V39.816H74.4977C74.4337 39.816 74.3797 39.798 74.3357 39.762C74.2917 39.722 74.2697 39.662 74.2697 39.582V39.156L75.2657 39.03L75.5117 37.152C75.5237 37.092 75.5497 37.044 75.5897 37.008C75.6337 36.968 75.6897 36.948 75.7577 36.948H76.2977V39.042H78.0557V39.816H76.2977V43.464C76.2977 43.72 76.3597 43.91 76.4837 44.034C76.6077 44.158 76.7677 44.22 76.9637 44.22C77.0757 44.22 77.1717 44.206 77.2517 44.178C77.3357 44.146 77.4077 44.112 77.4677 44.076C77.5277 44.04 77.5777 44.008 77.6177 43.98C77.6617 43.948 77.6997 43.932 77.7317 43.932C77.7877 43.932 77.8377 43.966 77.8817 44.034L78.1937 44.544C78.0097 44.716 77.7877 44.852 77.5277 44.952C77.2677 45.048 76.9997 45.096 76.7237 45.096ZM83.4413 41.298C83.4413 41.05 83.4053 40.824 83.3333 40.62C83.2653 40.412 83.1633 40.234 83.0273 40.086C82.8953 39.934 82.7333 39.818 82.5413 39.738C82.3493 39.654 82.1313 39.612 81.8873 39.612C81.3753 39.612 80.9693 39.762 80.6693 40.062C80.3733 40.358 80.1893 40.77 80.1173 41.298H83.4413ZM84.3053 44.148C84.1733 44.308 84.0153 44.448 83.8313 44.568C83.6473 44.684 83.4493 44.78 83.2373 44.856C83.0293 44.932 82.8133 44.988 82.5893 45.024C82.3653 45.064 82.1433 45.084 81.9233 45.084C81.5033 45.084 81.1153 45.014 80.7593 44.874C80.4073 44.73 80.1013 44.522 79.8413 44.25C79.5853 43.974 79.3853 43.634 79.2413 43.23C79.0973 42.826 79.0253 42.362 79.0253 41.838C79.0253 41.414 79.0893 41.018 79.2173 40.65C79.3493 40.282 79.5373 39.964 79.7813 39.696C80.0253 39.424 80.3233 39.212 80.6753 39.06C81.0273 38.904 81.4233 38.826 81.8633 38.826C82.2273 38.826 82.5633 38.888 82.8713 39.012C83.1833 39.132 83.4513 39.308 83.6753 39.54C83.9033 39.768 84.0813 40.052 84.2093 40.392C84.3373 40.728 84.4013 41.112 84.4013 41.544C84.4013 41.712 84.3833 41.824 84.3473 41.88C84.3113 41.936 84.2433 41.964 84.1433 41.964H80.0813C80.0933 42.348 80.1453 42.682 80.2373 42.966C80.3333 43.25 80.4653 43.488 80.6333 43.68C80.8013 43.868 81.0013 44.01 81.2333 44.106C81.4653 44.198 81.7253 44.244 82.0133 44.244C82.2813 44.244 82.5113 44.214 82.7033 44.154C82.8993 44.09 83.0673 44.022 83.2073 43.95C83.3473 43.878 83.4633 43.812 83.5553 43.752C83.6513 43.688 83.7333 43.656 83.8013 43.656C83.8893 43.656 83.9573 43.69 84.0053 43.758L84.3053 44.148ZM86.9772 40.14C87.1692 39.724 87.4052 39.4 87.6852 39.168C87.9652 38.932 88.3072 38.814 88.7112 38.814C88.8392 38.814 88.9612 38.828 89.0772 38.856C89.1972 38.884 89.3032 38.928 89.3952 38.988L89.3172 39.786C89.2932 39.886 89.2332 39.936 89.1372 39.936C89.0812 39.936 88.9992 39.924 88.8912 39.9C88.7832 39.876 88.6612 39.864 88.5252 39.864C88.3332 39.864 88.1612 39.892 88.0092 39.948C87.8612 40.004 87.7272 40.088 87.6072 40.2C87.4912 40.308 87.3852 40.444 87.2892 40.608C87.1972 40.768 87.1132 40.952 87.0372 41.16V45H85.9632V38.922H86.5752C86.6912 38.922 86.7712 38.944 86.8152 38.988C86.8592 39.032 86.8892 39.108 86.9052 39.216L86.9772 40.14ZM91.7123 38.922V45H90.6443V38.922H91.7123ZM91.9403 37.014C91.9403 37.118 91.9183 37.216 91.8743 37.308C91.8343 37.396 91.7783 37.476 91.7063 37.548C91.6383 37.616 91.5563 37.67 91.4603 37.71C91.3683 37.75 91.2703 37.77 91.1663 37.77C91.0623 37.77 90.9643 37.75 90.8723 37.71C90.7843 37.67 90.7063 37.616 90.6383 37.548C90.5703 37.476 90.5163 37.396 90.4763 37.308C90.4363 37.216 90.4163 37.118 90.4163 37.014C90.4163 36.91 90.4363 36.812 90.4763 36.72C90.5163 36.624 90.5703 36.542 90.6383 36.474C90.7063 36.402 90.7843 36.346 90.8723 36.306C90.9643 36.266 91.0623 36.246 91.1663 36.246C91.2703 36.246 91.3683 36.266 91.4603 36.306C91.5563 36.346 91.6383 36.402 91.7063 36.474C91.7783 36.542 91.8343 36.624 91.8743 36.72C91.9183 36.812 91.9403 36.91 91.9403 37.014ZM94.7251 39.804C94.8571 39.656 94.9971 39.522 95.1451 39.402C95.2931 39.282 95.4491 39.18 95.6131 39.096C95.7811 39.008 95.9571 38.942 96.1411 38.898C96.3291 38.85 96.5311 38.826 96.7471 38.826C97.0791 38.826 97.3711 38.882 97.6231 38.994C97.8791 39.102 98.0911 39.258 98.2591 39.462C98.4311 39.662 98.5611 39.904 98.6491 40.188C98.7371 40.472 98.7811 40.786 98.7811 41.13V45H97.7071V41.13C97.7071 40.67 97.6011 40.314 97.3891 40.062C97.1811 39.806 96.8631 39.678 96.4351 39.678C96.1191 39.678 95.8231 39.754 95.5471 39.906C95.2751 40.058 95.0231 40.264 94.7911 40.524V45H93.7171V38.922H94.3591C94.5111 38.922 94.6051 38.996 94.6411 39.144L94.7251 39.804ZM103.953 42.264C103.461 42.28 103.041 42.32 102.693 42.384C102.349 42.444 102.067 42.524 101.847 42.624C101.631 42.724 101.473 42.842 101.373 42.978C101.277 43.114 101.229 43.266 101.229 43.434C101.229 43.594 101.255 43.732 101.307 43.848C101.359 43.964 101.429 44.06 101.517 44.136C101.609 44.208 101.715 44.262 101.835 44.298C101.959 44.33 102.091 44.346 102.231 44.346C102.419 44.346 102.591 44.328 102.747 44.292C102.903 44.252 103.049 44.196 103.185 44.124C103.325 44.052 103.457 43.966 103.581 43.866C103.709 43.766 103.833 43.652 103.953 43.524V42.264ZM100.503 39.78C100.839 39.456 101.201 39.214 101.589 39.054C101.977 38.894 102.407 38.814 102.879 38.814C103.219 38.814 103.521 38.87 103.785 38.982C104.049 39.094 104.271 39.25 104.451 39.45C104.631 39.65 104.767 39.892 104.859 40.176C104.951 40.46 104.997 40.772 104.997 41.112V45H104.523C104.419 45 104.339 44.984 104.283 44.952C104.227 44.916 104.183 44.848 104.151 44.748L104.031 44.172C103.871 44.32 103.715 44.452 103.562 44.568C103.411 44.68 103.251 44.776 103.083 44.856C102.915 44.932 102.735 44.99 102.543 45.03C102.355 45.074 102.145 45.096 101.913 45.096C101.677 45.096 101.455 45.064 101.247 45C101.039 44.932 100.857 44.832 100.701 44.7C100.549 44.568 100.427 44.402 100.335 44.202C100.247 43.998 100.203 43.758 100.203 43.482C100.203 43.242 100.269 43.012 100.401 42.792C100.533 42.568 100.747 42.37 101.043 42.198C101.339 42.026 101.725 41.886 102.201 41.778C102.677 41.666 103.261 41.602 103.953 41.586V41.112C103.953 40.64 103.851 40.284 103.647 40.044C103.443 39.8 103.145 39.678 102.753 39.678C102.489 39.678 102.267 39.712 102.087 39.78C101.911 39.844 101.757 39.918 101.625 40.002C101.497 40.082 101.385 40.156 101.289 40.224C101.197 40.288 101.105 40.32 101.013 40.32C100.941 40.32 100.879 40.302 100.827 40.266C100.775 40.226 100.731 40.178 100.694 40.122L100.503 39.78ZM107.887 40.14C108.079 39.724 108.315 39.4 108.595 39.168C108.875 38.932 109.217 38.814 109.621 38.814C109.749 38.814 109.871 38.828 109.987 38.856C110.107 38.884 110.213 38.928 110.305 38.988L110.227 39.786C110.203 39.886 110.143 39.936 110.047 39.936C109.991 39.936 109.909 39.924 109.801 39.9C109.693 39.876 109.571 39.864 109.435 39.864C109.243 39.864 109.071 39.892 108.919 39.948C108.771 40.004 108.637 40.088 108.517 40.2C108.401 40.308 108.295 40.444 108.199 40.608C108.107 40.768 108.023 40.952 107.947 41.16V45H106.873V38.922H107.485C107.601 38.922 107.681 38.944 107.725 38.988C107.769 39.032 107.799 39.108 107.815 39.216L107.887 40.14ZM116.738 38.922L113.348 46.794C113.312 46.874 113.266 46.938 113.21 46.986C113.158 47.034 113.076 47.058 112.964 47.058H112.172L113.282 44.646L110.774 38.922H111.698C111.79 38.922 111.862 38.946 111.914 38.994C111.97 39.038 112.008 39.088 112.028 39.144L113.654 42.972C113.718 43.14 113.772 43.316 113.816 43.5C113.872 43.312 113.932 43.134 113.996 42.966L115.574 39.144C115.598 39.08 115.638 39.028 115.694 38.988C115.754 38.944 115.82 38.922 115.892 38.922H116.738ZM126.515 44.052L126.509 45H121.211V36.402H126.509V37.35H122.375V40.206H125.723V41.118H122.375V44.052H126.515ZM133.127 45H132.101C132.013 45 131.943 44.978 131.891 44.934C131.843 44.886 131.803 44.834 131.771 44.778L130.241 42.396C130.225 42.452 130.207 42.508 130.187 42.564C130.171 42.616 130.147 42.664 130.115 42.708L128.699 44.778C128.659 44.834 128.615 44.886 128.567 44.934C128.523 44.978 128.461 45 128.381 45H127.427L129.557 41.88L127.511 38.922H128.537C128.625 38.922 128.689 38.936 128.729 38.964C128.769 38.992 128.805 39.032 128.837 39.084L130.331 41.364C130.363 41.248 130.413 41.136 130.481 41.028L131.789 39.108C131.825 39.052 131.863 39.008 131.903 38.976C131.947 38.94 131.999 38.922 132.059 38.922H133.043L130.997 41.826L133.127 45ZM138.322 40.002C138.29 40.046 138.258 40.08 138.226 40.104C138.194 40.128 138.15 40.14 138.094 40.14C138.034 40.14 137.968 40.116 137.896 40.068C137.824 40.016 137.734 39.96 137.626 39.9C137.522 39.84 137.392 39.786 137.236 39.738C137.084 39.686 136.896 39.66 136.672 39.66C136.372 39.66 136.108 39.714 135.88 39.822C135.652 39.926 135.46 40.078 135.304 40.278C135.152 40.478 135.036 40.72 134.956 41.004C134.88 41.288 134.842 41.606 134.842 41.958C134.842 42.326 134.884 42.654 134.968 42.942C135.052 43.226 135.17 43.466 135.322 43.662C135.478 43.854 135.664 44.002 135.88 44.106C136.1 44.206 136.346 44.256 136.618 44.256C136.878 44.256 137.092 44.226 137.26 44.166C137.428 44.102 137.566 44.032 137.674 43.956C137.786 43.88 137.878 43.812 137.95 43.752C138.026 43.688 138.1 43.656 138.172 43.656C138.26 43.656 138.328 43.69 138.376 43.758L138.676 44.148C138.544 44.312 138.394 44.452 138.226 44.568C138.058 44.684 137.876 44.782 137.68 44.862C137.488 44.938 137.286 44.994 137.074 45.03C136.862 45.066 136.646 45.084 136.426 45.084C136.046 45.084 135.692 45.014 135.364 44.874C135.04 44.734 134.758 44.532 134.518 44.268C134.278 44 134.09 43.672 133.954 43.284C133.818 42.896 133.75 42.454 133.75 41.958C133.75 41.506 133.812 41.088 133.936 40.704C134.064 40.32 134.248 39.99 134.488 39.714C134.732 39.434 135.03 39.216 135.382 39.06C135.738 38.904 136.146 38.826 136.606 38.826C137.034 38.826 137.41 38.896 137.734 39.036C138.062 39.172 138.352 39.366 138.604 39.618L138.322 40.002ZM144.035 41.298C144.035 41.05 143.999 40.824 143.927 40.62C143.859 40.412 143.757 40.234 143.621 40.086C143.489 39.934 143.327 39.818 143.135 39.738C142.943 39.654 142.725 39.612 142.481 39.612C141.969 39.612 141.563 39.762 141.263 40.062C140.967 40.358 140.783 40.77 140.711 41.298H144.035ZM144.899 44.148C144.767 44.308 144.609 44.448 144.425 44.568C144.241 44.684 144.043 44.78 143.831 44.856C143.623 44.932 143.407 44.988 143.183 45.024C142.959 45.064 142.737 45.084 142.517 45.084C142.097 45.084 141.709 45.014 141.353 44.874C141.001 44.73 140.695 44.522 140.435 44.25C140.179 43.974 139.979 43.634 139.835 43.23C139.691 42.826 139.619 42.362 139.619 41.838C139.619 41.414 139.683 41.018 139.811 40.65C139.943 40.282 140.131 39.964 140.375 39.696C140.619 39.424 140.917 39.212 141.269 39.06C141.621 38.904 142.017 38.826 142.457 38.826C142.821 38.826 143.157 38.888 143.465 39.012C143.777 39.132 144.045 39.308 144.269 39.54C144.497 39.768 144.675 40.052 144.803 40.392C144.931 40.728 144.995 41.112 144.995 41.544C144.995 41.712 144.977 41.824 144.941 41.88C144.905 41.936 144.837 41.964 144.737 41.964H140.675C140.687 42.348 140.739 42.682 140.831 42.966C140.927 43.25 141.059 43.488 141.227 43.68C141.395 43.868 141.595 44.01 141.827 44.106C142.059 44.198 142.319 44.244 142.607 44.244C142.875 44.244 143.105 44.214 143.297 44.154C143.493 44.09 143.661 44.022 143.801 43.95C143.941 43.878 144.057 43.812 144.149 43.752C144.245 43.688 144.327 43.656 144.395 43.656C144.483 43.656 144.551 43.69 144.599 43.758L144.899 44.148ZM147.661 36.162V45H146.593V36.162H147.661ZM150.747 36.162V45H149.679V36.162H150.747ZM156.797 41.298C156.797 41.05 156.761 40.824 156.689 40.62C156.621 40.412 156.519 40.234 156.383 40.086C156.251 39.934 156.089 39.818 155.897 39.738C155.705 39.654 155.487 39.612 155.243 39.612C154.731 39.612 154.325 39.762 154.025 40.062C153.729 40.358 153.545 40.77 153.473 41.298H156.797ZM157.661 44.148C157.529 44.308 157.371 44.448 157.187 44.568C157.003 44.684 156.805 44.78 156.593 44.856C156.385 44.932 156.169 44.988 155.945 45.024C155.721 45.064 155.499 45.084 155.279 45.084C154.859 45.084 154.471 45.014 154.115 44.874C153.763 44.73 153.457 44.522 153.197 44.25C152.941 43.974 152.741 43.634 152.597 43.23C152.453 42.826 152.381 42.362 152.381 41.838C152.381 41.414 152.445 41.018 152.573 40.65C152.705 40.282 152.893 39.964 153.137 39.696C153.381 39.424 153.679 39.212 154.031 39.06C154.383 38.904 154.779 38.826 155.219 38.826C155.583 38.826 155.919 38.888 156.227 39.012C156.539 39.132 156.807 39.308 157.031 39.54C157.259 39.768 157.437 40.052 157.565 40.392C157.693 40.728 157.757 41.112 157.757 41.544C157.757 41.712 157.739 41.824 157.703 41.88C157.667 41.936 157.599 41.964 157.499 41.964H153.437C153.449 42.348 153.501 42.682 153.593 42.966C153.689 43.25 153.821 43.488 153.989 43.68C154.157 43.868 154.357 44.01 154.589 44.106C154.821 44.198 155.081 44.244 155.369 44.244C155.637 44.244 155.867 44.214 156.059 44.154C156.255 44.09 156.423 44.022 156.563 43.95C156.703 43.878 156.819 43.812 156.911 43.752C157.007 43.688 157.089 43.656 157.157 43.656C157.245 43.656 157.313 43.69 157.361 43.758L157.661 44.148ZM160.327 39.804C160.459 39.656 160.599 39.522 160.747 39.402C160.895 39.282 161.051 39.18 161.215 39.096C161.383 39.008 161.559 38.942 161.743 38.898C161.931 38.85 162.133 38.826 162.349 38.826C162.681 38.826 162.973 38.882 163.225 38.994C163.481 39.102 163.693 39.258 163.861 39.462C164.033 39.662 164.163 39.904 164.251 40.188C164.339 40.472 164.383 40.786 164.383 41.13V45H163.309V41.13C163.309 40.67 163.203 40.314 162.991 40.062C162.783 39.806 162.465 39.678 162.037 39.678C161.721 39.678 161.425 39.754 161.149 39.906C160.877 40.058 160.625 40.264 160.393 40.524V45H159.319V38.922H159.961C160.113 38.922 160.207 38.996 160.243 39.144L160.327 39.804ZM170.49 40.002C170.458 40.046 170.426 40.08 170.394 40.104C170.362 40.128 170.318 40.14 170.262 40.14C170.202 40.14 170.136 40.116 170.064 40.068C169.992 40.016 169.902 39.96 169.794 39.9C169.69 39.84 169.56 39.786 169.404 39.738C169.252 39.686 169.064 39.66 168.84 39.66C168.54 39.66 168.276 39.714 168.048 39.822C167.82 39.926 167.628 40.078 167.472 40.278C167.32 40.478 167.204 40.72 167.124 41.004C167.048 41.288 167.01 41.606 167.01 41.958C167.01 42.326 167.052 42.654 167.136 42.942C167.22 43.226 167.338 43.466 167.49 43.662C167.646 43.854 167.832 44.002 168.048 44.106C168.268 44.206 168.514 44.256 168.786 44.256C169.046 44.256 169.26 44.226 169.428 44.166C169.596 44.102 169.734 44.032 169.842 43.956C169.954 43.88 170.046 43.812 170.118 43.752C170.194 43.688 170.268 43.656 170.34 43.656C170.428 43.656 170.496 43.69 170.544 43.758L170.844 44.148C170.712 44.312 170.562 44.452 170.394 44.568C170.226 44.684 170.044 44.782 169.848 44.862C169.656 44.938 169.454 44.994 169.242 45.03C169.03 45.066 168.814 45.084 168.594 45.084C168.214 45.084 167.86 45.014 167.532 44.874C167.208 44.734 166.926 44.532 166.686 44.268C166.446 44 166.258 43.672 166.122 43.284C165.986 42.896 165.918 42.454 165.918 41.958C165.918 41.506 165.98 41.088 166.104 40.704C166.232 40.32 166.416 39.99 166.656 39.714C166.9 39.434 167.198 39.216 167.55 39.06C167.906 38.904 168.314 38.826 168.774 38.826C169.202 38.826 169.578 38.896 169.902 39.036C170.23 39.172 170.52 39.366 170.772 39.618L170.49 40.002ZM176.203 41.298C176.203 41.05 176.167 40.824 176.095 40.62C176.027 40.412 175.925 40.234 175.789 40.086C175.657 39.934 175.495 39.818 175.303 39.738C175.111 39.654 174.893 39.612 174.649 39.612C174.137 39.612 173.731 39.762 173.431 40.062C173.135 40.358 172.951 40.77 172.879 41.298H176.203ZM177.067 44.148C176.935 44.308 176.777 44.448 176.593 44.568C176.409 44.684 176.211 44.78 175.999 44.856C175.791 44.932 175.575 44.988 175.351 45.024C175.127 45.064 174.905 45.084 174.685 45.084C174.265 45.084 173.877 45.014 173.521 44.874C173.169 44.73 172.863 44.522 172.603 44.25C172.347 43.974 172.147 43.634 172.003 43.23C171.859 42.826 171.787 42.362 171.787 41.838C171.787 41.414 171.851 41.018 171.979 40.65C172.111 40.282 172.299 39.964 172.543 39.696C172.787 39.424 173.085 39.212 173.437 39.06C173.789 38.904 174.185 38.826 174.625 38.826C174.989 38.826 175.325 38.888 175.633 39.012C175.945 39.132 176.213 39.308 176.437 39.54C176.665 39.768 176.843 40.052 176.971 40.392C177.099 40.728 177.163 41.112 177.163 41.544C177.163 41.712 177.145 41.824 177.109 41.88C177.073 41.936 177.005 41.964 176.905 41.964H172.843C172.855 42.348 172.907 42.682 172.999 42.966C173.095 43.25 173.227 43.488 173.395 43.68C173.563 43.868 173.763 44.01 173.995 44.106C174.227 44.198 174.487 44.244 174.775 44.244C175.043 44.244 175.273 44.214 175.465 44.154C175.661 44.09 175.829 44.022 175.969 43.95C176.109 43.878 176.225 43.812 176.317 43.752C176.413 43.688 176.495 43.656 176.563 43.656C176.651 43.656 176.719 43.69 176.767 43.758L177.067 44.148Z" fill="#6A7282"/>
</svg>
