<svg width="5" height="5" viewBox="0 0 5 5" fill="none" xmlns="http://www.w3.org/2000/svg">
<path d="M4.22767 3.12899L3.91967 3.65399L2.70867 2.95399C2.62467 2.90266 2.55001 2.85133 2.48467 2.79999C2.41934 2.74866 2.36101 2.68332 2.30967 2.60399C2.38434 2.75799 2.42167 2.92832 2.42167 3.11499V4.50099H1.80567V3.12199C1.80567 3.02866 1.81034 2.94233 1.81967 2.86299C1.83367 2.78366 1.85934 2.70666 1.89667 2.63199C1.84534 2.69733 1.78934 2.75566 1.72867 2.80699C1.66801 2.85833 1.59801 2.90732 1.51867 2.95399L0.314672 3.64699L0.00667191 3.12199L1.21067 2.42199C1.38801 2.31466 1.56534 2.25866 1.74267 2.25399C1.64934 2.24466 1.55834 2.22832 1.46967 2.20499C1.38567 2.17699 1.29934 2.13499 1.21067 2.07899L-0.000328101 1.37199L0.307672 0.846991L1.51867 1.54699C1.60267 1.59833 1.67734 1.65199 1.74267 1.70799C1.80801 1.76399 1.86634 1.83166 1.91767 1.91099C1.84301 1.74766 1.80567 1.57266 1.80567 1.38599V-8.10623e-06H2.42167V1.37899C2.42167 1.47233 2.41467 1.56099 2.40067 1.64499C2.39134 1.72433 2.36801 1.80133 2.33067 1.87599C2.38201 1.81066 2.43801 1.75233 2.49867 1.70099C2.55934 1.64966 2.62934 1.59833 2.70867 1.54699L3.91267 0.853992L4.22067 1.37899L3.01667 2.07899C2.93734 2.13032 2.85801 2.16999 2.77867 2.19799C2.69934 2.22599 2.61534 2.24466 2.52667 2.25399C2.61534 2.26333 2.69934 2.28199 2.77867 2.30999C2.85801 2.33333 2.93734 2.37066 3.01667 2.42199L4.22767 3.12899Z" fill="#E30404"/>
</svg>
