<svg width="32" height="32" viewBox="0 0 32 32" fill="none" xmlns="http://www.w3.org/2000/svg">
<path d="M14.6666 2.66675V5.33341" stroke="#128280" stroke-width="2.66667" stroke-linecap="round" stroke-linejoin="round"/>
<path d="M6.66663 2.66675V5.33341" stroke="#128280" stroke-width="2.66667" stroke-linecap="round" stroke-linejoin="round"/>
<path d="M6.66663 4H5.33329C4.62605 4 3.94777 4.28095 3.44767 4.78105C2.94758 5.28115 2.66663 5.95942 2.66663 6.66667V12C2.66663 14.1217 3.50948 16.1566 5.00977 17.6569C6.51006 19.1571 8.54489 20 10.6666 20C12.7884 20 14.8232 19.1571 16.3235 17.6569C17.8238 16.1566 18.6666 14.1217 18.6666 12V6.66667C18.6666 5.95942 18.3857 5.28115 17.8856 4.78105C17.3855 4.28095 16.7072 4 16 4H14.6666" stroke="#128280" stroke-width="2.66667" stroke-linecap="round" stroke-linejoin="round"/>
<path d="M10.6666 20C10.6666 22.1217 11.5095 24.1566 13.0098 25.6569C14.5101 27.1571 16.5449 28 18.6666 28C20.7884 28 22.8232 27.1571 24.3235 25.6569C25.8238 24.1566 26.6666 22.1217 26.6666 20V16" stroke="#128280" stroke-width="2.66667" stroke-linecap="round" stroke-linejoin="round"/>
<path d="M26.6667 16.0001C28.1394 16.0001 29.3333 14.8062 29.3333 13.3334C29.3333 11.8607 28.1394 10.6667 26.6667 10.6667C25.1939 10.6667 24 11.8607 24 13.3334C24 14.8062 25.1939 16.0001 26.6667 16.0001Z" stroke="#128280" stroke-width="2.66667" stroke-linecap="round" stroke-linejoin="round"/>
</svg>
